<?xml version="1.0" encoding="UTF-8" standalone="no"?>
<svg
   xmlns:dc="http://purl.org/dc/elements/1.1/"
   xmlns:cc="http://creativecommons.org/ns#"
   xmlns:rdf="http://www.w3.org/1999/02/22-rdf-syntax-ns#"
   xmlns:svg="http://www.w3.org/2000/svg"
   xmlns="http://www.w3.org/2000/svg"
   id="svg2"
   version="1.1"
   width="670"
   height="185"
   viewBox="0 0 670 185">
  <metadata
     id="metadata8">
    <rdf:RDF>
      <cc:Work
         rdf:about="">
        <dc:format>image/svg+xml</dc:format>
        <dc:type
           rdf:resource="http://purl.org/dc/dcmitype/StillImage" />
        <dc:title></dc:title>
      </cc:Work>
    </rdf:RDF>
  </metadata>
  <defs
     id="defs6" />
  <g
     transform="translate(-12.5,-512.40369)"
     id="g4163">
    <g
       id="g3349"
       transform="translate(5,0)"
       style="fill:#000000;fill-opacity:1;stroke:#000000;stroke-opacity:1">
      <path
         style="fill:#000000;fill-opacity:1;fill-rule:evenodd;stroke:#000000;stroke-width:5;stroke-linecap:butt;stroke-linejoin:miter;stroke-miterlimit:4;stroke-dasharray:none;stroke-opacity:1"
         d="m 130,514.90369 -85,0 c -14.993929,-3.9e-4 -30,13.40458 -30,28 l 0,50 c 0.03714,5.01041 3.70816,9.63265 7,12 -3.29184,2.63265 -7,7 -7,12 l 0,48 c 0,19.76094 15.074993,30 30,30 l 85,0 c 3,0 5,-2 5,-5 l 0,-20 c 0,-3 -2,-5 -5,-5 l -75,0 c -3,0 -5,-2 -5,-5 l 0,-37 c 0,-2 1,-3 3,-3 l 77,0 c 3,0 5,-2 5,-5 l 0,-20 c 0,-3 -2,-5 -5,-5 l -77,0 c -2,0 -3,-1 -3,-3 l 0,-37 c 0,-3 2,-5 5,-5 l 75,0 c 3,0 5,-2 5,-5 l 0,-20 c 0,-3 -2,-5 -5,-5 z"
         id="path3351" />
      <path
         style="opacity:1;fill:#000000;fill-opacity:1;fill-rule:evenodd;stroke:#000000;stroke-width:5;stroke-linecap:round;stroke-linejoin:miter;stroke-miterlimit:4;stroke-dasharray:none;stroke-opacity:1"
         d="m 140,664.90369 c 0,14.92501 15,30 30,30 l 70,0 c 15,0 30,-15 30,-30 l 0,-100 -35,0 0,95 c 0.0336,3 -2,5 -5,5 l -50,0 c -3,0 -5,-2 -5,-5 l 0,-140 c 0,-3 -2,-5 -5,-5 l -25,0 c -3,0 -5,2 -5,5 l 0,23"
         id="path3353" />
      <path
         id="path3355"
         d="m 270,605.1805 0,-50.27681 c 0,-3 2,-5 5,-5 l 45,0 c 2,0 3,1 3,3 l 0,137 c 0,3 2,5 5,5 l 24,0 c 3,0 5,-2 5,-5 l 0,-137 c 0,-2 1,-3 3,-3 l 45,0 c 3,0 5,2 5,5 l 0,135 c 0,3 2,5 5,5 l 25,0 c 3,0 5,-2 5,-5 l 0,-145 c 3.9e-4,-14.99393 -15.40458,-30 -30,-30 l -63,0 c -5,0.037 -9.63265,3.70816 -12,7 -2.63265,-3.29184 -7,-7 -12,-7 l -63,0 c -15,0 -30,15.07499 -30,30 l 0,60.27681"
         style="opacity:1;fill:#000000;fill-opacity:1;fill-rule:evenodd;stroke:#000000;stroke-width:5;stroke-linecap:butt;stroke-linejoin:miter;stroke-miterlimit:4;stroke-dasharray:none;stroke-opacity:1" />
      <path
         id="path3357"
         d="m 570,664.90369 c 0,14.92501 15,30 30,30 l 70,0 c 3,0 5,-2 5,-5 l 0,-20 c 0,-3 -2,-5 -5,-5 l -60,0 c -3,0 -5,-2 -5,-5 l 0,-140 c 0,-3 -2,-5 -5,-5 l -25,0 c -3,0 -5,2 -5,5 l 0,23"
         style="opacity:1;fill:#000000;fill-opacity:1;fill-rule:evenodd;stroke:#000000;stroke-width:5;stroke-linecap:round;stroke-linejoin:round;stroke-miterlimit:4;stroke-dasharray:none;stroke-opacity:1" />
      <path
         id="path3359"
         d="m 560,514.90369 -85,0 c -14.99393,-3.9e-4 -30,13.40458 -30,28 l 0,50 c 0.0371,5.01041 3.70816,9.63265 7,12 -3.29184,2.63265 -7,7 -7,12 l 0,48 c 0,19.76094 15.07499,30 30,30 l 85,0 c 3,0 5,-2 5,-5 l 0,-20 c 0,-3 -2,-5 -5,-5 l -75,0 c -3,0 -5,-2 -5,-5 l 0,-37 c 0,-2 1,-3 3,-3 l 77,0 c 3,0 5,-2 5,-5 l 0,-20 c 0,-3 -2,-5 -5,-5 l -77,0 c -2,0 -3,-1 -3,-3 l 0,-37 c 0,-3 2,-5 5,-5 l 75,0 c 3,0 5,-2 5,-5 l 0,-20 c 0,-3 -2,-5 -5,-5 z"
         style="fill:#000000;fill-opacity:1;fill-rule:evenodd;stroke:#000000;stroke-width:5;stroke-linecap:butt;stroke-linejoin:miter;stroke-miterlimit:4;stroke-dasharray:none;stroke-opacity:1" />
    </g>
    <g
       id="g3342">
      <path
         id="path3399"
         d="m 130,514.90369 -85,0 c -14.993929,-3.9e-4 -30,13.40458 -30,28 l 0,50 c 0.03714,5.01041 3.70816,9.63265 7,12 -3.29184,2.63265 -7,7 -7,12 l 0,48 c 0,19.76094 15.074993,30 30,30 l 85,0 c 3,0 5,-2 5,-5 l 0,-20 c 0,-3 -2,-5 -5,-5 l -75,0 c -3,0 -5,-2 -5,-5 l 0,-37 c 0,-2 1,-3 3,-3 l 77,0 c 3,0 5,-2 5,-5 l 0,-20 c 0,-3 -2,-5 -5,-5 l -77,0 c -2,0 -3,-1 -3,-3 l 0,-37 c 0,-3 2,-5 5,-5 l 75,0 c 3,0 5,-2 5,-5 l 0,-20 c 0,-3 -2,-5 -5,-5 z"
         style="fill:#ffffff;fill-opacity:1;fill-rule:evenodd;stroke:#000000;stroke-width:5;stroke-linecap:butt;stroke-linejoin:miter;stroke-miterlimit:4;stroke-dasharray:none;stroke-opacity:1" />
      <path
         id="path4137"
         d="m 140,664.90369 c 0,14.92501 15,30 30,30 l 70,0 c 15,0 30,-15 30,-30 l 0,-100 -35,0 0,95 c 0.0336,3 -2,5 -5,5 l -50,0 c -3,0 -5,-2 -5,-5 l 0,-140 c 0,-3 -2,-5 -5,-5 l -25,0 c -3,0 -5,2 -5,5 l 0,23"
         style="opacity:1;fill:#ffffff;fill-opacity:1;fill-rule:evenodd;stroke:#000000;stroke-width:5;stroke-linecap:round;stroke-linejoin:miter;stroke-miterlimit:4;stroke-dasharray:none;stroke-opacity:1" />
      <path
         style="opacity:1;fill:#ffffff;fill-opacity:1;fill-rule:evenodd;stroke:#000000;stroke-width:5;stroke-linecap:butt;stroke-linejoin:miter;stroke-miterlimit:4;stroke-dasharray:none;stroke-opacity:1"
         d="m 270,605.1805 0,-50.27681 c 0,-3 2,-5 5,-5 l 45,0 c 2,0 3,1 3,3 l 0,137 c 0,3 2,5 5,5 l 24,0 c 3,0 5,-2 5,-5 l 0,-137 c 0,-2 1,-3 3,-3 l 45,0 c 3,0 5,2 5,5 l 0,135 c 0,3 2,5 5,5 l 25,0 c 3,0 5,-2 5,-5 l 0,-145 c 3.9e-4,-14.99393 -15.40458,-30 -30,-30 l -63,0 c -5,0.037 -9.63265,3.70816 -12,7 -2.63265,-3.29184 -7,-7 -12,-7 l -63,0 c -15,0 -30,15.07499 -30,30 l 0,60.27681"
         id="path4138" />
      <path
         style="opacity:1;fill:#ffffff;fill-opacity:1;fill-rule:evenodd;stroke:#000000;stroke-width:5;stroke-linecap:round;stroke-linejoin:round;stroke-miterlimit:4;stroke-dasharray:none;stroke-opacity:1"
         d="m 570,664.90369 c 0,14.92501 15,30 30,30 l 70,0 c 3,0 5,-2 5,-5 l 0,-20 c 0,-3 -2,-5 -5,-5 l -60,0 c -3,0 -5,-2 -5,-5 l 0,-140 c 0,-3 -2,-5 -5,-5 l -25,0 c -3,0 -5,2 -5,5 l 0,23"
         id="path4141" />
      <path
         style="fill:#ffffff;fill-opacity:1;fill-rule:evenodd;stroke:#000000;stroke-width:5;stroke-linecap:butt;stroke-linejoin:miter;stroke-miterlimit:4;stroke-dasharray:none;stroke-opacity:1"
         d="m 560,514.90369 -85,0 c -14.99393,-3.9e-4 -30,13.40458 -30,28 l 0,50 c 0.0371,5.01041 3.70816,9.63265 7,12 -3.29184,2.63265 -7,7 -7,12 l 0,48 c 0,19.76094 15.07499,30 30,30 l 85,0 c 3,0 5,-2 5,-5 l 0,-20 c 0,-3 -2,-5 -5,-5 l -75,0 c -3,0 -5,-2 -5,-5 l 0,-37 c 0,-2 1,-3 3,-3 l 77,0 c 3,0 5,-2 5,-5 l 0,-20 c 0,-3 -2,-5 -5,-5 l -77,0 c -2,0 -3,-1 -3,-3 l 0,-37 c 0,-3 2,-5 5,-5 l 75,0 c 3,0 5,-2 5,-5 l 0,-20 c 0,-3 -2,-5 -5,-5 z"
         id="path3340" />
    </g>
  </g>
</svg>
