<?xml version="1.0" encoding="UTF-8" standalone="no"?>
<svg
   xmlns:dc="http://purl.org/dc/elements/1.1/"
   xmlns:cc="http://creativecommons.org/ns#"
   xmlns:rdf="http://www.w3.org/1999/02/22-rdf-syntax-ns#"
   xmlns:svg="http://www.w3.org/2000/svg"
   xmlns="http://www.w3.org/2000/svg"
   viewBox="0 0 665 140"
   height="140"
   width="665"
   version="1.1"
   id="svg2">
  <metadata
     id="metadata8">
    <rdf:RDF>
      <cc:Work
         rdf:about="">
        <dc:format>image/svg+xml</dc:format>
        <dc:type
           rdf:resource="http://purl.org/dc/dcmitype/StillImage" />
        <dc:title></dc:title>
      </cc:Work>
    </rdf:RDF>
  </metadata>
  <defs
     id="defs6" />
  <path
     id="rect3338"
     d="m 0,0 0,140 665,0 0,-98.833984 -51.98047,0 L 613.01953,0 0,0 Z m 5,5 121,0 0,30.416016 -30,0 0,12 30,0 0,40.541015 -30,0 0,12 30,0 L 126,128 5,128 5,5 Z m 135,0 54,0 0,38 12,0 0,-38 50,0 0,123 -116,0 0,-123 z m 130,0 122,0 0,123 -30,0 0,-36 -12,0 0,36 -40,0 0,-36 -12,0 0,36 -28,0 0,-123 z m 136,0 120,0 0,31 -35,0 0,12 35,0 0,40 -35,0 0,12 35,0 0,28 -120,0 0,-123 z m 134,0 60,0 0,61 12,0 0,-19.277344 41,0 L 653,128 540,128 540,5 Z"
     style="opacity:1;fill:#000000;fill-opacity:1;stroke:none;stroke-width:5;stroke-linecap:round;stroke-linejoin:round;stroke-miterlimit:4;stroke-dasharray:none;stroke-dashoffset:0;stroke-opacity:1" />
</svg>
